<?xml version="1.0" encoding="utf-8"?>
<!-- Generator: Adobe Illustrator 25.4.1, SVG Export Plug-In . SVG Version: 6.00 Build 0)  -->
<svg version="1.1" id="Layer_1" xmlns="http://www.w3.org/2000/svg" xmlns:xlink="http://www.w3.org/1999/xlink" x="0px" y="0px"
	 viewBox="0 0 32.2 36.5" style="enable-background:new 0 0 32.2 36.5;" xml:space="preserve">
<style type="text/css">
	.st0{fill:none;stroke:#FFFFFF;stroke-width:1.2;}
	.st1{fill:#FFFFFF;}
</style>
<g id="Group_246" transform="translate(-12413 802.6)">
	<g id="Group_244" transform="translate(12425 -802)">
		<path id="Path_335" class="st0" d="M11.4,35.2H-7c-2.3,0-4.2-1.9-4.2-4.2V4.2C-11.2,1.9-9.3,0-7,0h18.3c2.3,0,4.2,1.9,4.2,4.2V31
			C15.6,33.3,13.8,35.2,11.4,35.2C11.4,35.2,11.4,35.2,11.4,35.2z"/>
		<g id="Group_239" transform="translate(4.798 9.063)">
			<path id="Path_336" class="st0" d="M4.4,2.2h-14.5c-0.6,0-1.1-0.5-1.1-1.1c0-0.6,0.5-1.1,1.1-1.1c0,0,0,0,0.1,0H4.4
				c0.6,0,1.1,0.5,1.1,1.1C5.5,1.7,5,2.2,4.4,2.2z"/>
		</g>
		<g id="Group_240" transform="translate(4.798 14.838)">
			<path id="Path_337" class="st0" d="M4.4,2.2h-14.5c-0.6,0-1.1-0.5-1.1-1.1c0-0.6,0.5-1.1,1.1-1.1H4.4c0.6,0,1.1,0.5,1.1,1.1
				C5.5,1.7,5,2.2,4.4,2.2z"/>
		</g>
		<g id="Group_241" transform="translate(4.798 20.613)">
			<path id="Path_338" class="st0" d="M4.4,2.2h-14.5c-0.6,0-1.1-0.5-1.1-1.1c0-0.6,0.5-1.1,1.1-1.1H4.4c0.6,0,1.1,0.5,1.1,1.1
				C5.5,1.7,5,2.2,4.4,2.2z"/>
		</g>
		<g id="Group_243" transform="translate(19.052 18.98)">
			<g id="Group_242" transform="translate(0)">
				<path id="Path_339" class="st1" d="M-3.8,2l2.4,2.4l-6.2,6.1l-2.4-2.4L-3.8,2z M0.5,1.4l-1.1-1.1c-0.4-0.4-1.1-0.4-1.5,0l-1.1,1
					l2.4,2.4l1.2-1.2C0.8,2.2,0.8,1.7,0.5,1.4z M-11.2,11.5c0,0.2,0.1,0.3,0.2,0.3c0,0,0.1,0,0.1,0l2.7-0.7l-2.4-2.4L-11.2,11.5z"/>
			</g>
		</g>
	</g>
</g>
</svg>
