<?xml version="1.0" encoding="utf-8"?>
<!-- Generator: Adobe Illustrator 25.4.1, SVG Export Plug-In . SVG Version: 6.00 Build 0)  -->
<svg version="1.1" id="Layer_1" xmlns="http://www.w3.org/2000/svg" xmlns:xlink="http://www.w3.org/1999/xlink" x="0px" y="0px"
	 viewBox="0 0 36.7 37" style="enable-background:new 0 0 36.7 37;" xml:space="preserve">
<style type="text/css">
	.st0{fill:none;stroke:#FFFFFF;stroke-width:1.2;}
</style>
<g id="Group_258" transform="translate(-1845.5 -597.399)">
	<g id="noun_call_1995644" transform="translate(1852.5 598)">
		<g id="Group_245" transform="translate(0 0)">
			<path id="Path_340" class="st0" d="M23,27.6l-4.5-3.5c-0.9-0.7-2.3-0.6-3,0.3c-0.8,0.9-1.3,1.5-1.5,1.7c-1.4,1.4-4.2-0.6-7.2-3.6
				s-5-5.8-3.6-7.2c0.1-0.1,0.8-0.7,1.7-1.5c0.9-0.8,1-2.1,0.3-3L1.6,6.2C1,5.5-0.1,5.2-1,5.6c-1.4,0.8-2.8,1.8-4,2.9
				c-3.2,3.3,0.8,10.7,7.9,17.8s14.5,11.2,17.8,7.9c1.1-1.2,2.1-2.5,2.9-4C24,29.3,23.8,28.2,23,27.6z"/>
			<path id="Path_341" class="st0" d="M11.9,11.8c-0.8-0.2-1.6,0.3-1.8,1.1c0,0.1,0,0.3,0,0.4l0,0c0.1,0.6,0.5,1.2,1.1,1.3
				c1.6,0.4,2.9,1.7,3.3,3.3c0.1,0.6,0.7,1.1,1.3,1.1l0,0c0.8,0.1,1.5-0.6,1.5-1.4c0-0.1,0-0.3,0-0.4c-0.3-1.3-1-2.5-1.9-3.5
				C14.5,12.8,13.3,12.1,11.9,11.8z"/>
			<path id="Path_342" class="st0" d="M21.7,19.5c0.8,0.1,1.5-0.6,1.5-1.4c0-0.1,0-0.1,0-0.2C22.7,11.6,17.7,6.6,11.3,6
				C10.5,6,9.8,6.6,9.8,7.4s0.5,1.5,1.3,1.6l0,0c2.4,0.2,4.6,1.2,6.3,2.9c1.7,1.7,2.7,3.9,2.9,6.3C20.4,18.9,20.9,19.5,21.7,19.5z"
				/>
			<path id="Path_343" class="st0" d="M23.4,5.8c-3.4-3.3-7.9-5.3-12.6-5.4c-0.8,0-1.5,0.6-1.5,1.4c0,0.1,0,0.1,0,0.2l0,0
				c0.1,0.7,0.7,1.3,1.4,1.4c8.3,0.3,14.9,7,15.2,15.2c0,0.7,0.6,1.4,1.4,1.4l0,0c0.8,0.1,1.5-0.5,1.5-1.3c0-0.1,0-0.1,0-0.2
				C28.7,13.7,26.8,9.2,23.4,5.8z"/>
		</g>
	</g>
</g>
</svg>
