<?xml version="1.0" encoding="utf-8"?>
<!-- Generator: Adobe Illustrator 25.4.1, SVG Export Plug-In . SVG Version: 6.00 Build 0)  -->
<svg version="1.1" id="Capa_1" xmlns="http://www.w3.org/2000/svg" xmlns:xlink="http://www.w3.org/1999/xlink" x="0px" y="0px"
	 viewBox="0 0 511 511" style="enable-background:new 0 0 511 511;" xml:space="preserve">
<style type="text/css">
	.st0{fill:#FFFFFF;}
</style>
<g>
	<path class="st0" d="M503.5,440H479V207.4c13.8-3.5,24-16.5,24-31.9v-104c0-8.5-7-15.5-15.5-15.5h-464C15,56,8,63,8,71.5v104
		c0,15.4,10.2,28.4,24,31.9V440H7.5c-4.1,0-7.5,3.4-7.5,7.5s3.4,7.5,7.5,7.5h496c4.1,0,7.5-3.4,7.5-7.5S507.6,440,503.5,440z
		 M488,71.5v104c0,9.4-7,17.4-15.6,17.8c-4.6,0.2-8.9-1.4-12.3-4.5c-3.3-3.1-5.1-7.4-5.1-12V71h32.5C487.8,71,488,71.2,488,71.5z
		 M71,71h33v105.9c0,9.1-7.4,16.5-16.5,16.5S71,186,71,176.9V71z M119,71h33v105.9c0,9.1-7.4,16.5-16.5,16.5S119,186,119,176.9V71z
		 M167,71h33v105.9c0,9.1-7.4,16.5-16.5,16.5S167,186,167,176.9V71z M215,71h33v105.9c0,9.1-7.4,16.5-16.5,16.5S215,186,215,176.9
		V71z M263,71h33v105.9c0,9.1-7.4,16.5-16.5,16.5S263,186,263,176.9V71z M311,71h33v105.9c0,9.1-7.4,16.5-16.5,16.5
		S311,186,311,176.9V71z M359,71h33v105.9c0,9.1-7.4,16.5-16.5,16.5S359,186,359,176.9V71z M407,71h33v105.9
		c0,9.1-7.4,16.5-16.5,16.5S407,186,407,176.9V71z M23,175.5v-104c0-0.3,0.2-0.5,0.5-0.5H56v105.9c0,4.6-1.8,8.8-5.1,12
		c-3.3,3.1-7.7,4.7-12.3,4.5C30,192.9,23,184.9,23,175.5z M47,207.5c5.3-1.3,10.1-3.9,14.2-7.8c0.8-0.8,1.6-1.6,2.3-2.5
		c5.8,6.8,14.4,11.1,24,11.1c9.6,0,18.2-4.3,24-11.1c5.8,6.8,14.4,11.1,24,11.1s18.2-4.3,24-11.1c5.8,6.8,14.4,11.1,24,11.1
		s18.2-4.3,24-11.1c5.8,6.8,14.4,11.1,24,11.1s18.2-4.3,24-11.1c5.8,6.8,14.4,11.1,24,11.1s18.2-4.3,24-11.1
		c5.8,6.8,14.4,11.1,24,11.1s18.2-4.3,24-11.1c5.8,6.8,14.4,11.1,24,11.1s18.2-4.3,24-11.1c5.8,6.8,14.4,11.1,24,11.1
		c9.6,0,18.2-4.3,24-11.1c0.7,0.9,1.5,1.7,2.3,2.5c4.1,3.8,8.9,6.5,14.2,7.8V440h-33V263.5c0-8.5-7-15.5-15.5-15.5h-96
		c-8.5,0-15.5,7-15.5,15.5V440H47V207.5z M416,440h-97V263.5c0-0.3,0.2-0.5,0.5-0.5h96c0.3,0,0.5,0.2,0.5,0.5V440z"/>
	<path class="st0" d="M343.5,336c-4.1,0-7.5,3.4-7.5,7.5v16c0,4.1,3.4,7.5,7.5,7.5s7.5-3.4,7.5-7.5v-16
		C351,339.4,347.6,336,343.5,336z"/>
	<path class="st0" d="M262.5,248h-174c-4.7,0-8.5,3.8-8.5,8.5v142c0,4.7,3.8,8.5,8.5,8.5h174c4.7,0,8.5-3.8,8.5-8.5v-142
		C271,251.8,267.2,248,262.5,248z M256,392H95V263h161V392z"/>
</g>
</svg>
